<svg xmlns="http://www.w3.org/2000/svg" viewBox="0 0 260 190" width="260" height="190"><defs><style>.cls-1{fill:url(#linear-gradient);}.cls-2{fill:#272829;}</style><linearGradient id="linear-gradient" x1="-105" y1="661.17" x2="-102.83" y2="661.17" gradientTransform="matrix(110.09, 0, 0, -78.95, 11566.87, 52289.79)" gradientUnits="userSpaceOnUse"><stop offset="0.05" stop-color="#71aa42"/><stop offset="0.95" stop-color="#89bc40"/></linearGradient></defs><title>ekelof</title><path id="bg" class="cls-1" d="M9.79,39.27c3.68,2.16,21,8.44,18,15.8S8.27,68.71,17.15,86.89c8.87,18,13.2,7.36,24.89,26,11.69,18.4,13.42,27.06,27.27,34,11.26,5.84,14.5-4.11,16-21.65,0,0,2.6-16.23,8.87-9.31,5.41,5.84,14.07,35.93,29.44,45.89,15.37,9.74,39.61,20.35,44.16,9.09,4.55-11,3-20.35,3.25-26,0.22-5.84,6.06-2.6,11.69-1.73,5.63,0.65,45,10.82,58-6.93,13.2-17.75-1.08-35.72-6.71-41.56-4.11-4.55-22.73-14.94-25.11-16-2.6-1.08-15.37-6.06-7.79-13.2,7.36-7.14,23.59-8.87,17.32-22.3-6.28-13.2-45-18-56.71-16.45-12.34,1.52-29.65,6.93-35.72,8.87-9.09,2.81-14.29-1.08-11.26-7.14,3-5.84,10.17-13.2,6.49-18.83C117.8,3.77,99.4,3.56,91.18,7.45,83,11.13,76,15.68,71.48,13.95c-4.33-1.73-8.87-7.14-17.75-1.3a63.19,63.19,0,0,0-18,18.62c-2.38,4.11-6.71,13.64-13,11S8.92,36.46,8.92,36.46,6.11,37.11,9.79,39.27Z"/><path class="cls-2" d="M93.79,71.57c11.28-.14,28.75-3.37,49.13-15.63,11.26-6.71,42.86-9.74,42.86-9.74S165.21,44.69,144.21,51c-21,6.49-38.53,18.83-61.91,17.75a3.92,3.92,0,0,0-1.86.24A110.81,110.81,0,0,1,48.67,56.45c6,0.43,21.33-1.87,31.25-18,3.68-5.84,19.48-14.5,19.48-14.5s-7.79-.65-18,6.93C71.26,38.19,71.48,51.4,47,55.29l-0.2,0q-2.49-1.54-5-3.29c-6.83-4.68-6-.9,4.07,5.68,0.07,4.79,2.56,17.57,13.9,33.5,4.76,6.49,11.47,28.14,11.47,28.14s2.6-10.61-3-23.81C62.75,82.9,49.87,73.53,47,58.44c11.27,7.11,32.82,17.08,66.5,23.4,1,6.36,6.09,20.75,22,38.18,6.93,7.58,18.18,32.9,18.18,32.9a87.41,87.41,0,0,0-10.82-31.39c-8.56-14.82-22.74-22.39-27.82-39.4,6.9,1.26,14.29,2.36,22.19,3.25,22.94,2.38,80.74,32.9,80.74,32.9s-31-22.94-69.27-35.93C129.41,75.79,111.44,74.47,93.79,71.57Z"/><path class="cls-2" d="M247,98.8c-4.55-5-24.89-16.45-27.49-17.75-2.81-1.08-16.45-6.49-8.44-14.72,8.23-8,23.16-9.31,16.23-24-6.93-14.94-50.22-21.21-63.21-19-13,1.95-23.59,5-29.87,8.23-6.06,3-16.23,2.16-12.77-4.33,3.46-6.71,7.14-15.59,3.46-22.08-3.9-6.28-24-6.49-33.12-1.95-9.09,4.33-16.67,9.31-21.65,7.36s-9.74-7.79-19.7-1.3a70.11,70.11,0,0,0-19.7,21c-2.6,4.55-5.41,11.47-12.34,8.66L1.78,32.13c-0.22-.43-3.9,4.55,0,6.93s22.73,9.31,19.48,17.53C17.8,65-.38,72.18,9.36,92.09c9.74,20.13,14.5,8.23,27.27,28.79,12.55,20.35,15.59,32,31.39,37.88,12.55,4.55,18.62-6.28,19.26-23.59,0,0,.87-18.18,6.06-11.26s15.37,40,31.82,50.87c16.67,10.82,43.51,22.3,48.49,9.74s3.46-22.73,3.68-29.22c0.22-6.28,6.93-2.81,13-1.95S239.67,165,254,145.12C268.46,125.21,253.09,105.29,247,98.8Zm-6.28,37.45c-13,17.75-52.38,7.58-58,6.93-5.63-.87-11.47-4.11-11.69,1.73-0.22,5.63,1.3,14.94-3.25,26-4.55,11.26-28.79.65-44.16-9.09-15.37-10-24-40-29.44-45.89-6.28-6.93-8.87,9.31-8.87,9.31-1.52,17.53-4.76,27.49-16,21.65-13.85-6.93-15.58-15.59-27.27-34-11.69-18.62-16-8-24.89-26C8.27,68.71,24.73,62.43,27.76,55.08s-14.29-13.64-18-15.8-0.87-2.81-.87-2.81,7.58,3.25,13.85,5.84,10.61-6.93,13-11a63.19,63.19,0,0,1,18-18.62c8.87-5.84,13.42-.43,17.75,1.3C76,15.68,83,11.13,91.18,7.45c8.23-3.9,26.62-3.68,30.09,2.16,3.68,5.63-3.46,13-6.49,18.83-3,6.06,2.16,10,11.26,7.14,6.06-1.95,23.38-7.36,35.72-8.87,11.69-1.52,50.43,3.25,56.71,16.45,6.28,13.42-10,15.15-17.32,22.3-7.58,7.14,5.2,12.12,7.79,13.2,2.38,1.08,21,11.47,25.11,16C239.67,100.53,254,118.5,240.75,136.25Z"/></svg>