<svg id="Layer_1" data-name="Layer 1" xmlns="http://www.w3.org/2000/svg" viewBox="0 0 412.99 53.21" width="413" height="54"><defs><style>.cls-1{fill:#000000;}</style></defs><path class="cls-1" d="M29.16,1L41.69,52.42H27.43l-1.37-9H15.41l-1.37,9H0L12.31,1H29.16Zm-8.5,10.51L17,33.34h7.49L20.81,11.52H20.66Z"/><path class="cls-1" d="M82.3,10.66a3,3,0,0,0-2.81-1.58,3.52,3.52,0,0,0-2.41.79,5.28,5.28,0,0,0-1.37,2.81,30.76,30.76,0,0,0-.61,5.44Q75,21.53,75,26.71t0.14,8.6a30.73,30.73,0,0,0,.61,5.44,5.28,5.28,0,0,0,1.37,2.81,3.52,3.52,0,0,0,2.41.79,3.2,3.2,0,0,0,2-.61,3.94,3.94,0,0,0,1.22-2.05,18.75,18.75,0,0,0,.61-3.85q0.18-2.41.18-6.08h13v3.82A23.24,23.24,0,0,1,95,44.42a13.83,13.83,0,0,1-3.82,5.44,12.68,12.68,0,0,1-5.44,2.66,28.82,28.82,0,0,1-6.3.68,26.29,26.29,0,0,1-9.22-1.37,11.11,11.11,0,0,1-5.62-4.57A21.39,21.39,0,0,1,61.88,39a85,85,0,0,1-.76-12.28A73.14,73.14,0,0,1,62,14.26,21.1,21.1,0,0,1,65.09,6,12.21,12.21,0,0,1,70.78,1.4,23.66,23.66,0,0,1,79.49,0a22.68,22.68,0,0,1,7.7,1.15,13,13,0,0,1,5.15,3.28,12.8,12.8,0,0,1,2.88,5.11,23.34,23.34,0,0,1,.9,6.73v3.24h-13V16.63Q83.16,12.24,82.3,10.66Z"/><path class="cls-1" d="M131.76,1V12H114.69v8.78h16V31.25h-16V41.47h17.71V52.42H101.3V1h30.46Z"/><path class="cls-1" d="M158.25,1a18.69,18.69,0,0,1,6.52,1,11.17,11.17,0,0,1,4.39,2.84,11,11,0,0,1,2.45,4.36,19,19,0,0,1,.76,5.47A15,15,0,0,1,170.28,23a9.25,9.25,0,0,1-6.7,3.89v0.14q4.82,0.43,6.62,3.38a15.61,15.61,0,0,1,1.8,8.14v6.48q0,1.08.07,2.05a16.54,16.54,0,0,0,.22,1.76,4.68,4.68,0,0,0,.36,1.22c0.19,0.29.38,0.56,0.58,0.83a2.82,2.82,0,0,0,.94.76v0.72H159.91a8.88,8.88,0,0,1-.76-2.38,26.33,26.33,0,0,1-.36-2.74q-0.11-1.37-.14-2.63t0-2.05V39.17a24.94,24.94,0,0,0-.22-3.6,5.71,5.71,0,0,0-.76-2.27,2.88,2.88,0,0,0-1.37-1.15,5.67,5.67,0,0,0-2.05-.32h-3.53V52.42H137.3V1h21Zm-4.9,21.74a5.14,5.14,0,0,0,4.25-1.69A6.83,6.83,0,0,0,159,16.63q0-3.24-1.33-4.61t-4.36-1.37h-2.59v12.1h2.66Z"/><path class="cls-1" d="M174.17,12.38V1h33.41V12.38H197.5v40H184.1v-40h-9.94Z"/><path class="cls-1" d="M251.93,1l12.53,51.41H250.2l-1.37-9H238.17l-1.37,9h-14L235.08,1h16.85Zm-8.5,10.51-3.67,21.82h7.49l-3.67-21.82h-0.14Z"/><path class="cls-1" d="M286.27,1a16.49,16.49,0,0,1,6.62,1.22,12.79,12.79,0,0,1,4.64,3.35,13.46,13.46,0,0,1,2.7,5,21.71,21.71,0,0,1,.87,6.26q0,8-4.29,12t-12.56,4h-4.68V52.42H266.18V1h20.09ZM282.1,23.18a4.86,4.86,0,0,0,3.85-1.51,7.07,7.07,0,0,0,1.33-4.75q0-6.26-5.18-6.26h-2.52V23.18h2.52Z"/><path class="cls-1" d="M328,1l12.53,51.41H326.23l-1.37-9H314.21l-1.37,9h-14L311.11,1H328Zm-8.5,10.51-3.67,21.82h7.49l-3.67-21.82h-0.14Z"/><path class="cls-1" d="M363.67,1a18.68,18.68,0,0,1,6.52,1,11.18,11.18,0,0,1,4.39,2.84A11,11,0,0,1,377,9.22a18.94,18.94,0,0,1,.76,5.47A15,15,0,0,1,375.69,23a9.25,9.25,0,0,1-6.7,3.89v0.14q4.82,0.43,6.62,3.38a15.62,15.62,0,0,1,1.8,8.14v6.48q0,1.08.07,2.05a16.42,16.42,0,0,0,.22,1.76,4.7,4.7,0,0,0,.36,1.22c0.19,0.29.38,0.56,0.58,0.83a2.82,2.82,0,0,0,.94.76v0.72H365.33a8.87,8.87,0,0,1-.76-2.38,26.73,26.73,0,0,1-.36-2.74q-0.11-1.37-.14-2.63t0-2.05V39.17a24.85,24.85,0,0,0-.22-3.6,5.71,5.71,0,0,0-.76-2.27,2.87,2.87,0,0,0-1.37-1.15,5.67,5.67,0,0,0-2.05-.32h-3.53V52.42H342.72V1h21Zm-4.9,21.74A5.14,5.14,0,0,0,363,21.06a6.83,6.83,0,0,0,1.37-4.43q0-3.24-1.33-4.61t-4.36-1.37h-2.59v12.1h2.66Z"/><path class="cls-1" d="M379.58,12.38V1H413V12.38H402.91v40H389.52v-40h-9.94Z"/></svg>